<svg xmlns="http://www.w3.org/2000/svg" viewBox="0 0 332 110"><circle cx="55" cy="55" r="55"/><circle cx="55" cy="55.0002" r="42.2805" fill="#eb0000"/><path d="M66.424,85.185a3.0621,3.0621,0,0,1-3.0621,3.0621H60.4176c0,2.0814-2.4255,3.7687-5.4176,3.7687s-5.4176-1.6873-5.4176-3.7687H46.6381a3.0621,3.0621,0,0,1,0-6.1242H63.3619A3.0621,3.0621,0,0,1,66.424,85.185ZM79.9679,45.3665A24.9307,24.9307,0,0,1,69.9265,65.3834a7.544,7.544,0,0,0-3.0314,6.0428v4.051a2.8266,2.8266,0,0,1-2.8266,2.8265H45.9315a2.8266,2.8266,0,0,1-2.8266-2.8265V71.4263a7.5539,7.5539,0,0,0-3.0314-6.0429A24.9685,24.9685,0,1,1,79.9679,45.3665ZM52.84,28.1438A2.3584,2.3584,0,0,0,50.0809,26.27l-.0256.0049a18.4081,18.4081,0,0,0-6.396,2.5443,18.9038,18.9038,0,0,0-4.9522,4.5373,19.2794,19.2794,0,0,0-3.0421,5.77,18.3276,18.3276,0,0,0-.886,6.2566.06.06,0,0,0,.117.0134,22.1458,22.1458,0,0,1,2.36-5.5571A19.7651,19.7651,0,0,1,40.9038,35.35a17.8507,17.8507,0,0,1,4.6525-3.0543,17.0884,17.0884,0,0,1,5.2021-1.3635c.0673-.007.1392-.0172.2069-.03A2.3584,2.3584,0,0,0,52.84,28.1438Z"/><path d="M156.1176,40.2387H129.4617c.5361,10.8465,5.5759,15.3525,12.45,15.3525,4.3545,0,7.2567-1.3754,10.77-3.9722l2.063,2.8276a19.7244,19.7244,0,0,1-13.061,4.8883c-10.5412,0-16.9563-7.639-16.9563-20.4716,0-12.7533,6.1867-21.1569,15.9632-21.1569,10.3873,0,15.581,7.5621,15.581,19.3247C156.2715,38.2526,156.1945,39.4764,156.1176,40.2387Zm-4.2006-4.5829c0-8.7066-3.5129-14.2826-11.075-14.2826-6.2613,0-10.9211,4.5829-11.38,15.43H151.917Zm43.1274,22.8376h-5.3475l-11.5319-18.56-11.4573,18.56h-5.119L175.6428,37.26l-12.22-18.7116h5.1937l9.7765,15.9633,9.8535-15.9633h5.04L180.99,37.108ZM234.8406,38.33c0,12.6018-5.2706,21.0054-15.201,21.0054a14.0831,14.0831,0,0,1-11.38-5.499v48.6124H203.83v-83.9h3.8183l.3823,5.8044a14.9768,14.9768,0,0,1,12.2965-6.6459C230.1808,17.7064,234.8406,25.4223,234.8406,38.33Zm-4.7367,0c0-11.38-3.6645-16.9563-10.6158-16.9563-5.1167,0-8.4781,3.0561-11.2288,6.8744V49.4814c2.4453,3.7414,5.9582,6.11,10.5411,6.11C226.1317,55.5912,230.1039,49.7868,230.1039,38.33Zm44.47,1.9092H247.918c.5338,10.8465,5.5759,15.3525,12.45,15.3525,4.3521,0,7.2543-1.3754,10.7673-3.9722l2.063,2.8276a19.72,19.72,0,0,1-13.0611,4.8883c-10.5388,0-16.9563-7.639-16.9563-20.4716,0-12.7533,6.1867-21.1569,15.9633-21.1569,10.3873,0,15.5809,7.5621,15.5809,19.3247C274.7254,38.2526,274.6508,39.4764,274.5739,40.2387Zm-4.2006-4.5829c0-8.7066-3.5129-14.2826-11.075-14.2826-6.2636,0-10.9234,4.5829-11.38,15.43h22.4553Zm34.4769-17.49-.8415,4.2007a12.6186,12.6186,0,0,0-3.5129-.4569c-5.576,0-8.5551,3.97-10.6927,12.1426V58.4934h-4.4314V18.5479h3.8207l.3823,8.9351c2.1376-6.5667,5.7274-9.7766,11.3034-9.7766A14.956,14.956,0,0,1,304.85,18.1656ZM332,56.8127a14.9353,14.9353,0,0,1-8.4035,2.5222c-6.0329,0-9.7766-3.59-9.7766-10.5412V22.1378h-6.7205v-3.59H313.82V9l4.4314-.5338V18.5479h10.31l-.5339,3.59h-9.7765V48.5653c0,4.6575,1.8322,6.949,5.8813,6.949a11.7974,11.7974,0,0,0,6.11-1.7554Z"/><path d="M132.3779,102.4483h-4.4337V66.99h4.4337Zm33.9685,0H160.37L145.4226,71.8854c.2564,2.8346.6177,6.907.6177,13.4527v17.11h-4.1749V66.99h5.8254L162.74,97.6043c-.1049-.9791-.5688-6.3918-.5688-10.7719V66.99h4.175Zm29.367-32.0058-2.422,2.732a12.2339,12.2339,0,0,0-8.1425-3.0933c-3.7623,0-6.5969,1.8042-6.5969,5.2566,0,3.1446,1.4942,4.6388,7.886,6.5969,5.8231,1.753,10.4106,4.0212,10.4106,10.6694,0,6.1844-4.6388,10.4619-12.4223,10.4619a16.4974,16.4974,0,0,1-11.9049-4.5339l2.4733-2.7834a13.8718,13.8718,0,0,0,9.38,3.6062c4.3288,0,7.8348-2.2145,7.8348-6.5969,0-3.6575-1.753-5.2566-7.8348-7.1122-6.9583-2.1119-10.4106-4.7414-10.4106-10.1518,0-5.3079,4.5363-9.1239,10.9771-9.1239A14.5675,14.5675,0,0,1,195.7134,70.4425Zm45.885-.2564-2.6294,2.781a11.2811,11.2811,0,0,0-7.8325-2.8859c-5.2053,0-10.4642,3.97-10.4642,14.5856,0,10.3593,3.66,14.6881,10.0516,14.6881a14.2456,14.2456,0,0,0,6.9047-1.648V86.5736h-6.4408l-.5152-3.6575h11.39V99.975a22.0469,22.0469,0,0,1-11.3384,3.091c-9.0726,0-14.793-6.1331-14.793-18.3992,0-12.0074,7.1657-18.2967,15.2056-18.2967A14.9058,14.9058,0,0,1,241.5984,70.1861Zm29.4209,15.46H255.6109v16.8025h-4.4337V66.99h4.4337V81.9347h15.4084V66.99h4.485v35.4581h-4.485Zm34.9033-14.842h-9.9467v31.6445h-4.4337V70.8038H281.339V66.99h25.0988Zm24.9422-.3613-2.422,2.732A12.2339,12.2339,0,0,0,320.3,70.0812c-3.7624,0-6.597,1.8042-6.597,5.2566,0,3.1446,1.4943,4.6388,7.8861,6.5969C327.4124,83.6877,332,85.9559,332,92.6041c0,6.1844-4.6388,10.4619-12.4223,10.4619a16.4972,16.4972,0,0,1-11.9049-4.5339l2.4733-2.7834a13.8718,13.8718,0,0,0,9.38,3.6062c4.3288,0,7.8348-2.2145,7.8348-6.5969,0-3.6575-1.753-5.2566-7.8348-7.1122-6.9583-2.1119-10.4106-4.7414-10.4106-10.1518,0-5.3079,4.5363-9.1239,10.977-9.1239A14.5676,14.5676,0,0,1,330.8648,70.4425Z" fill="#eb0000"/></svg>