<?xml version="1.0" encoding="utf-8"?>
<!-- Generator: Adobe Illustrator 17.0.0, SVG Export Plug-In . SVG Version: 6.00 Build 0)  -->
<!DOCTYPE svg PUBLIC "-//W3C//DTD SVG 1.1//EN" "http://www.w3.org/Graphics/SVG/1.1/DTD/svg11.dtd">
<svg version="1.1" id="Layer_1" xmlns="http://www.w3.org/2000/svg" xmlns:xlink="http://www.w3.org/1999/xlink" x="0px" y="0px"
	 width="604.556px" height="137.435px" viewBox="0 0 604.556 137.435" enable-background="new 0 0 604.556 137.435"
	 xml:space="preserve">
<g>
	<path fill="#FFFFFF" d="M0.002,89.352v-0.224c0-19.771,12.357-31.793,26.738-31.793c9.213,0,14.605,4.157,18.649,8.764V37.45
		h21.345v82.01H45.389v-8.088c-4.157,5.055-9.437,9.437-18.537,9.437C12.472,120.809,0.002,108.787,0.002,89.352z M45.726,89.128
		v-0.224c0-7.976-5.505-13.706-12.359-13.706c-6.853,0-12.469,5.617-12.469,13.706v0.224c0,8.088,5.617,13.818,12.469,13.818
		C40.222,102.946,45.726,97.216,45.726,89.128z"/>
	<path fill="#FFFFFF" d="M70.428,89.352v-0.224c0-17.75,12.695-31.793,30.67-31.793c21.009,0,30.671,15.391,30.671,33.253
		c0,1.348,0,2.921-0.113,4.381H90.987c1.686,6.628,6.516,9.999,13.145,9.999c5.055,0,9.1-1.911,13.481-6.18l11.796,9.775
		c-5.842,7.414-14.268,12.357-26.4,12.357C83.91,120.921,70.428,108.227,70.428,89.352z M111.771,84.072
		c-0.786-6.74-4.718-11.009-10.56-11.009c-5.618,0-9.438,4.381-10.561,11.009H111.771z"/>
	<path fill="#FFFFFF" d="M126.015,58.683h22.469l11.683,35.5l11.684-35.5h22.131l-24.266,61.227h-19.436L126.015,58.683z"/>
	<path fill="#FFFFFF" d="M188.23,89.352v-0.224c0-17.75,12.695-31.793,30.67-31.793c21.008,0,30.671,15.391,30.671,33.253
		c0,1.348,0,2.921-0.112,4.381h-40.67c1.684,6.628,6.516,9.999,13.144,9.999c5.055,0,9.101-1.911,13.482-6.18l11.798,9.775
		c-5.844,7.414-14.268,12.357-26.402,12.357C201.712,120.921,188.23,108.227,188.23,89.352z M229.573,84.072
		c-0.786-6.74-4.719-11.009-10.561-11.009c-5.615,0-9.437,4.381-10.559,11.009H229.573z"/>
	<path fill="#FFFFFF" d="M253.385,37.45h21.344v82.01h-21.344V37.45z"/>
	<path fill="#FFFFFF" d="M278.227,89.352v-0.224c0-17.3,14.154-31.793,33.701-31.793c19.436,0,33.481,14.268,33.481,31.569v0.224
		c0,17.301-14.157,31.793-33.705,31.793C292.269,120.921,278.227,106.653,278.227,89.352z M324.624,89.352v-0.224
		c0-7.414-5.391-13.705-12.92-13.705c-7.752,0-12.696,6.179-12.696,13.481v0.224c0,7.414,5.394,13.706,12.92,13.706
		C319.681,102.834,324.624,96.656,324.624,89.352z"/>
	<path fill="#FFFFFF" d="M349.165,58.683h21.346v8.088c4.155-5.055,9.325-9.437,18.423-9.437c14.492,0,26.964,12.021,26.964,31.457
		v0.224c0,19.771-12.472,31.793-26.852,31.793c-9.21,0-14.604-4.157-18.535-8.762v25.389h-21.346V58.683z M394.89,89.128v-0.224
		c0-7.976-5.506-13.706-12.472-13.706c-6.852,0-12.357,5.73-12.357,13.706v0.224c0,8.088,5.506,13.818,12.357,13.818
		C389.384,102.946,394.89,97.328,394.89,89.128z"/>
	<path fill="#FFFFFF" d="M419.923,89.352v-0.224c0-17.75,12.693-31.793,30.669-31.793c21.008,0,30.671,15.391,30.671,33.253
		c0,1.348,0,2.921-0.112,4.381h-40.67c1.684,6.628,6.516,9.999,13.144,9.999c5.055,0,9.101-1.911,13.482-6.18l11.798,9.775
		c-5.844,7.414-14.268,12.357-26.402,12.357C433.403,120.921,419.923,108.227,419.923,89.352z M461.265,84.072
		c-0.786-6.74-4.719-11.009-10.561-11.009c-5.615,0-9.437,4.381-10.559,11.009H461.265z"/>
	<path fill="#FFFFFF" d="M485.868,58.683h21.346v12.245c3.481-8.313,9.098-13.706,19.209-13.257v22.469h-1.796
		c-11.123,0-17.413,6.402-17.413,20.446v18.873h-21.346V58.683z"/>
	<g>
		<path fill="#FFFFFF" d="M572.472,98.027h-21.888V78.705h-18.988V57.491h18.988V38.168h21.888v19.324h18.985v21.214h-18.985V98.027
			z M552.924,95.687h17.207V76.365h18.985V59.832h-18.985V40.508h-17.207v19.324h-18.988v16.533h18.988V95.687z"/>
	</g>
	<g>
		<path fill="#FFFFFF" d="M593.253,41.035h-1.796v-1.737h5.603v1.737h-1.796v4.339h-2.012V41.035z M597.71,39.298h2.112l1.301,2.132
			l1.303-2.132h2.13v6.077h-2.032v-3.018l-1.401,2.17h-0.018l-1.401-2.17v3.018h-1.994V39.298z"/>
	</g>
</g>
<g>
	<path fill="#FFFFFF" d="M1.903,18.147h3.908V7.76H1.903V4.571h11.621V7.76H9.616v10.387h3.908v3.188H1.903V18.147z"/>
	<path fill="#FFFFFF" d="M17.274,8.582h3.085l0.283,1.697h0.103c1.105-1.08,2.494-2.005,4.396-2.005c2.88,0,4.165,1.979,4.165,5.193
		v7.868h-3.779v-7.379c0-1.697-0.489-2.468-1.877-2.468c-1.028,0-1.697,0.462-2.597,1.337v8.51h-3.78V8.582z"/>
	<path fill="#FFFFFF" d="M35.319,11.539h-3.214V8.736l3.394-0.154l0.488-3.394h3.111v3.394h5.399v2.957h-5.399v4.474
		c0,1.928,0.823,2.674,2.674,2.674c0.977,0,1.8-0.206,2.545-0.462l0.668,2.725c-1.131,0.334-2.52,0.694-4.165,0.694
		c-4.062,0-5.502-2.263-5.502-5.605V11.539z"/>
	<path fill="#FFFFFF" d="M49.25,8.582h3.085l0.309,2.777h0.077c1.26-2.083,3.137-3.085,5.168-3.085c1.131,0,1.723,0.18,2.468,0.514
		l-0.771,3.162c-0.797-0.231-1.312-0.36-2.263-0.36c-1.568,0-3.214,0.823-4.293,3.111v6.633h-3.78V8.582z"/>
	<path fill="#FFFFFF" d="M69.404,8.274c3.368,0,6.505,2.442,6.505,6.685c0,4.243-3.137,6.685-6.505,6.685s-6.505-2.442-6.505-6.685
		C62.899,10.716,66.036,8.274,69.404,8.274z M69.404,18.584c1.749,0,2.623-1.414,2.623-3.625c0-2.211-0.874-3.625-2.623-3.625
		s-2.623,1.414-2.623,3.625C66.781,17.17,67.655,18.584,69.404,18.584z"/>
	<path fill="#FFFFFF" d="M83.772,8.274c1.465,0,2.365,0.54,3.265,1.362l-0.128-1.979V3.312h3.779v18.023h-3.085l-0.283-1.311h-0.077
		c-0.952,0.925-2.263,1.62-3.548,1.62c-3.24,0-5.374-2.52-5.374-6.685C78.322,10.793,80.996,8.274,83.772,8.274z M84.672,18.558
		c0.849,0,1.568-0.334,2.237-1.183v-5.168c-0.694-0.617-1.388-0.849-2.134-0.849c-1.389,0-2.571,1.131-2.571,3.548
		C82.204,17.427,83.104,18.558,84.672,18.558z"/>
	<path fill="#FFFFFF" d="M106.034,21.335h-3.085l-0.283-1.826h-0.103c-1.131,1.286-2.468,2.134-4.294,2.134
		c-2.905,0-4.139-1.98-4.139-5.194V8.582h3.779v7.379c0,1.697,0.437,2.468,1.851,2.468c0.952,0,1.62-0.334,2.494-1.466V8.582h3.78
		V21.335z"/>
	<path fill="#FFFFFF" d="M117.06,8.274c2.005,0,3.703,0.72,4.782,1.723l-1.748,2.339c-0.977-0.694-1.877-1.002-2.828-1.002
		c-2.186,0-3.703,1.414-3.703,3.625c0,2.211,1.465,3.625,3.574,3.625c1.337,0,2.468-0.566,3.368-1.208l1.543,2.391
		c-1.543,1.286-3.522,1.877-5.271,1.877c-4.011,0-7.096-2.442-7.096-6.685C109.681,10.716,113.126,8.274,117.06,8.274z"/>
	<path fill="#FFFFFF" d="M125.412,8.582h8.896v12.753h-3.78v-9.796h-5.116V8.582z M129.731,4.417c0-1.388,1.054-2.365,2.52-2.365
		c1.466,0,2.52,0.977,2.52,2.365c0,1.389-1.054,2.289-2.52,2.289C130.786,6.706,129.731,5.806,129.731,4.417z"/>
	<path fill="#FFFFFF" d="M140.655,8.582h3.085l0.283,1.697h0.103c1.105-1.08,2.494-2.005,4.396-2.005
		c2.88,0,4.165,1.979,4.165,5.193v7.868h-3.779v-7.379c0-1.697-0.489-2.468-1.877-2.468c-1.028,0-1.697,0.462-2.597,1.337v8.51
		h-3.78V8.582z"/>
	<path fill="#FFFFFF" d="M157.543,20.949v-0.103c-0.694-0.438-1.286-1.106-1.286-2.186c0-0.849,0.617-1.774,1.517-2.391v-0.103
		c-0.926-0.617-1.671-1.774-1.671-3.265c0-3.06,2.571-4.628,5.451-4.628c0.771,0,1.491,0.103,2.108,0.308h5.168v2.751h-2.597
		c0.309,0.386,0.592,1.028,0.592,1.697c0,2.931-2.314,4.268-5.271,4.268c-0.514,0-1.105-0.077-1.749-0.257
		c-0.385,0.283-0.565,0.515-0.565,0.926c0,0.694,0.668,0.977,2.16,0.977h2.365c3.343,0,5.168,0.926,5.168,3.214
		c0,2.674-2.957,4.602-7.584,4.602c-3.317,0-5.785-0.977-5.785-3.265C155.563,22.466,156.231,21.592,157.543,20.949z
		 M161.888,24.395c2.031,0,3.445-0.694,3.445-1.568c0-0.823-0.771-1.003-2.237-1.003h-1.594c-0.926,0-1.491-0.051-1.954-0.154
		c-0.643,0.411-0.9,0.797-0.9,1.26C158.648,23.88,159.882,24.395,161.888,24.395z M163.508,12.902c0-1.363-0.9-2.083-1.954-2.083
		s-1.903,0.72-1.903,2.083c0,1.388,0.849,2.108,1.903,2.108S163.508,14.29,163.508,12.902z"/>
</g>
</svg>
