<?xml version="1.0" encoding="utf-8"?>
<!-- Generator: Adobe Illustrator 17.0.0, SVG Export Plug-In . SVG Version: 6.00 Build 0)  -->
<!DOCTYPE svg PUBLIC "-//W3C//DTD SVG 1.1//EN" "http://www.w3.org/Graphics/SVG/1.1/DTD/svg11.dtd">
<svg version="1.1" id="Layer_1" xmlns="http://www.w3.org/2000/svg" xmlns:xlink="http://www.w3.org/1999/xlink" x="0px" y="0px"
	 width="604.556px" height="137.435px" viewBox="0 0 604.556 137.435" enable-background="new 0 0 604.556 137.435"
	 xml:space="preserve">
<g>
	<path fill="#FFFFFF" d="M0.002,89.352v-0.224c0-19.771,12.357-31.793,26.738-31.793c9.213,0,14.605,4.157,18.649,8.764V37.45
		h21.345v82.01H45.389v-8.088c-4.157,5.055-9.437,9.437-18.537,9.437C12.472,120.809,0.002,108.787,0.002,89.352z M45.726,89.128
		v-0.224c0-7.976-5.505-13.706-12.359-13.706c-6.853,0-12.469,5.617-12.469,13.706v0.224c0,8.088,5.617,13.818,12.469,13.818
		C40.222,102.946,45.726,97.216,45.726,89.128z"/>
	<path fill="#FFFFFF" d="M70.428,89.352v-0.224c0-17.75,12.695-31.793,30.67-31.793c21.009,0,30.671,15.391,30.671,33.253
		c0,1.348,0,2.921-0.113,4.381H90.987c1.686,6.628,6.516,9.999,13.145,9.999c5.055,0,9.1-1.911,13.481-6.18l11.796,9.775
		c-5.842,7.414-14.268,12.357-26.4,12.357C83.91,120.921,70.428,108.227,70.428,89.352z M111.771,84.072
		c-0.786-6.74-4.718-11.009-10.56-11.009c-5.618,0-9.438,4.381-10.561,11.009H111.771z"/>
	<path fill="#FFFFFF" d="M126.015,58.683h22.469l11.683,35.5l11.684-35.5h22.131l-24.266,61.227h-19.436L126.015,58.683z"/>
	<path fill="#FFFFFF" d="M188.23,89.352v-0.224c0-17.75,12.695-31.793,30.67-31.793c21.008,0,30.671,15.391,30.671,33.253
		c0,1.348,0,2.921-0.112,4.381h-40.67c1.684,6.628,6.516,9.999,13.144,9.999c5.055,0,9.101-1.911,13.482-6.18l11.798,9.775
		c-5.844,7.414-14.268,12.357-26.402,12.357C201.712,120.921,188.23,108.227,188.23,89.352z M229.573,84.072
		c-0.786-6.74-4.719-11.009-10.561-11.009c-5.615,0-9.437,4.381-10.559,11.009H229.573z"/>
	<path fill="#FFFFFF" d="M253.385,37.45h21.344v82.01h-21.344V37.45z"/>
	<path fill="#FFFFFF" d="M278.227,89.352v-0.224c0-17.3,14.154-31.793,33.701-31.793c19.436,0,33.481,14.268,33.481,31.569v0.224
		c0,17.301-14.157,31.793-33.705,31.793C292.269,120.921,278.227,106.653,278.227,89.352z M324.624,89.352v-0.224
		c0-7.414-5.391-13.705-12.92-13.705c-7.752,0-12.696,6.179-12.696,13.481v0.224c0,7.414,5.394,13.706,12.92,13.706
		C319.681,102.834,324.624,96.656,324.624,89.352z"/>
	<path fill="#FFFFFF" d="M349.165,58.683h21.346v8.088c4.155-5.055,9.325-9.437,18.423-9.437c14.492,0,26.964,12.021,26.964,31.457
		v0.224c0,19.771-12.472,31.793-26.852,31.793c-9.21,0-14.604-4.157-18.535-8.762v25.389h-21.346V58.683z M394.89,89.128v-0.224
		c0-7.976-5.506-13.706-12.472-13.706c-6.852,0-12.357,5.73-12.357,13.706v0.224c0,8.088,5.506,13.818,12.357,13.818
		C389.384,102.946,394.89,97.328,394.89,89.128z"/>
	<path fill="#FFFFFF" d="M419.923,89.352v-0.224c0-17.75,12.693-31.793,30.669-31.793c21.008,0,30.671,15.391,30.671,33.253
		c0,1.348,0,2.921-0.112,4.381h-40.67c1.684,6.628,6.516,9.999,13.144,9.999c5.055,0,9.101-1.911,13.482-6.18l11.798,9.775
		c-5.844,7.414-14.268,12.357-26.402,12.357C433.403,120.921,419.923,108.227,419.923,89.352z M461.265,84.072
		c-0.786-6.74-4.719-11.009-10.561-11.009c-5.615,0-9.437,4.381-10.559,11.009H461.265z"/>
	<path fill="#FFFFFF" d="M485.868,58.683h21.346v12.245c3.481-8.313,9.098-13.706,19.209-13.257v22.469h-1.796
		c-11.123,0-17.413,6.402-17.413,20.446v18.873h-21.346V58.683z"/>
	<g>
		<path fill="#FFFFFF" d="M572.472,98.027h-21.888V78.705h-18.988V57.491h18.988V38.168h21.888v19.324h18.985v21.214h-18.985V98.027
			z M552.924,95.687h17.207V76.365h18.985V59.832h-18.985V40.508h-17.207v19.324h-18.988v16.533h18.988V95.687z"/>
	</g>
	<g>
		<path fill="#FFFFFF" d="M593.253,41.035h-1.796v-1.737h5.603v1.737h-1.796v4.339h-2.012V41.035z M597.71,39.298h2.112l1.301,2.132
			l1.303-2.132h2.13v6.077h-2.032v-3.018l-1.401,2.17h-0.018l-1.401-2.17v3.018h-1.994V39.298z"/>
	</g>
</g>
<text transform="matrix(1 0 0 1 0 21.335)" fill="#FFFFFF" font-family="'SourceCodePro-Bold'" font-size="25.7048">Introducing</text>
</svg>
