<?xml version="1.0" encoding="utf-8"?>
<!-- Generator: Adobe Illustrator 17.0.0, SVG Export Plug-In . SVG Version: 6.00 Build 0)  -->
<!DOCTYPE svg PUBLIC "-//W3C//DTD SVG 1.1//EN" "http://www.w3.org/Graphics/SVG/1.1/DTD/svg11.dtd">
<svg version="1.1" id="Layer_2" xmlns="http://www.w3.org/2000/svg" xmlns:xlink="http://www.w3.org/1999/xlink" x="0px" y="0px"
	 width="71.333px" height="71.333px" viewBox="0 0 71.333 71.333" enable-background="new 0 0 71.333 71.333" xml:space="preserve">
<path fill="none" stroke="#292929" stroke-width="0.7615" stroke-linecap="round" stroke-linejoin="round" stroke-miterlimit="3.8637" d="
	M11.937,42.124c0,0,6.416-4.218,9.291-11.921s5.375-17.87,17.209-17.87s15.828,11,15.828,11l8.338,5.646l-7.883,6.688
	c0,0-5.63,21.241-25.212,21.241c-13.49,0-16.989-8.409-16.989-8.409l2.417-3.667"/>
<path fill="none" stroke="#292929" stroke-width="0.7615" stroke-linecap="round" stroke-linejoin="round" stroke-miterlimit="3.8637" d="
	M54.721,35.667c0,0-2.466-1.472-2.466-5.786c0-2.875,0.842-4.87,1.919-6.779"/>
<circle fill="none" stroke="#292929" stroke-width="0.7615" stroke-linecap="round" stroke-linejoin="round" stroke-miterlimit="3.8637" cx="41.267" cy="24.855" r="2.677"/>
<path fill="none" stroke="#292929" stroke-width="0.7615" stroke-linecap="round" stroke-linejoin="round" stroke-miterlimit="3.8637" d="
	M11.937,42.124c0,0,7.625,8.906,21.213-0.625"/>
<line fill="none" stroke="#292929" stroke-width="0.375" stroke-linecap="round" stroke-linejoin="round" stroke-miterlimit="3.8637" x1="39.603" y1="54.721" x2="51.655" y2="42.844"/>
<line fill="none" stroke="#292929" stroke-width="0.375" stroke-linecap="round" stroke-linejoin="round" stroke-miterlimit="3.8637" x1="36.103" y1="56.089" x2="53.588" y2="38.859"/>
<line fill="none" stroke="#292929" stroke-width="0.375" stroke-linecap="round" stroke-linejoin="round" stroke-miterlimit="3.8637" x1="33.471" y1="56.602" x2="54.637" y2="35.745"/>
<line fill="none" stroke="#292929" stroke-width="0.375" stroke-linecap="round" stroke-linejoin="round" stroke-miterlimit="3.8637" x1="31.098" y1="56.86" x2="53.659" y2="34.627"/>
<line fill="none" stroke="#292929" stroke-width="0.375" stroke-linecap="round" stroke-linejoin="round" stroke-miterlimit="3.8637" x1="28.938" y1="56.908" x2="52.896" y2="33.299"/>
<line fill="none" stroke="#292929" stroke-width="0.375" stroke-linecap="round" stroke-linejoin="round" stroke-miterlimit="3.8637" x1="26.918" y1="56.817" x2="52.416" y2="31.691"/>
<line fill="none" stroke="#292929" stroke-width="0.375" stroke-linecap="round" stroke-linejoin="round" stroke-miterlimit="3.8637" x1="25.057" y1="56.571" x2="52.255" y2="29.769"/>
<line fill="none" stroke="#292929" stroke-width="0.375" stroke-linecap="round" stroke-linejoin="round" stroke-miterlimit="3.8637" x1="23.299" y1="56.222" x2="52.45" y2="27.496"/>
<line fill="none" stroke="#292929" stroke-width="0.375" stroke-linecap="round" stroke-linejoin="round" stroke-miterlimit="3.8637" x1="21.656" y1="55.761" x2="53.156" y2="24.72"/>
<line fill="none" stroke="#292929" stroke-width="0.375" stroke-linecap="round" stroke-linejoin="round" stroke-miterlimit="3.8637" x1="20.123" y1="55.191" x2="53.678" y2="22.124"/>
<line fill="none" stroke="#292929" stroke-width="0.375" stroke-linecap="round" stroke-linejoin="round" stroke-miterlimit="3.8637" x1="18.696" y1="54.516" x2="52.959" y2="20.751"/>
<line fill="none" stroke="#292929" stroke-width="0.375" stroke-linecap="round" stroke-linejoin="round" stroke-miterlimit="3.8637" x1="17.373" y1="53.739" x2="52.125" y2="19.493"/>
<line fill="none" stroke="#292929" stroke-width="0.375" stroke-linecap="round" stroke-linejoin="round" stroke-miterlimit="3.8637" x1="43.944" y1="25.474" x2="51.209" y2="18.315"/>
<line fill="none" stroke="#292929" stroke-width="0.375" stroke-linecap="round" stroke-linejoin="round" stroke-miterlimit="3.8637" x1="16.152" y1="52.861" x2="41.892" y2="27.496"/>
<line fill="none" stroke="#292929" stroke-width="0.375" stroke-linecap="round" stroke-linejoin="round" stroke-miterlimit="3.8637" x1="43.74" y1="23.594" x2="50.21" y2="17.219"/>
<line fill="none" stroke="#292929" stroke-width="0.375" stroke-linecap="round" stroke-linejoin="round" stroke-miterlimit="3.8637" x1="14.988" y1="51.928" x2="40.044" y2="27.237"/>
<line fill="none" stroke="#292929" stroke-width="0.375" stroke-linecap="round" stroke-linejoin="round" stroke-miterlimit="3.8637" x1="42.665" y1="22.572" x2="49.124" y2="16.208"/>
<line fill="none" stroke="#292929" stroke-width="0.375" stroke-linecap="round" stroke-linejoin="round" stroke-miterlimit="3.8637" x1="14.024" y1="50.797" x2="38.964" y2="26.22"/>
<line fill="none" stroke="#292929" stroke-width="0.375" stroke-linecap="round" stroke-linejoin="round" stroke-miterlimit="3.8637" x1="40.955" y1="22.178" x2="47.946" y2="15.288"/>
<line fill="none" stroke="#292929" stroke-width="0.375" stroke-linecap="round" stroke-linejoin="round" stroke-miterlimit="3.8637" x1="13.132" y1="49.595" x2="38.616" y2="24.482"/>
<line fill="none" stroke="#292929" stroke-width="0.375" stroke-linecap="round" stroke-linejoin="round" stroke-miterlimit="3.8637" x1="13.24" y1="47.408" x2="46.668" y2="14.466"/>
<line fill="none" stroke="#292929" stroke-width="0.375" stroke-linecap="round" stroke-linejoin="round" stroke-miterlimit="3.8637" x1="14.473" y1="44.112" x2="45.28" y2="13.754"/>
<line fill="none" stroke="#292929" stroke-width="0.375" stroke-linecap="round" stroke-linejoin="round" stroke-miterlimit="3.8637" x1="13.215" y1="43.271" x2="43.767" y2="13.164"/>
<line fill="none" stroke="#292929" stroke-width="0.375" stroke-linecap="round" stroke-linejoin="round" stroke-miterlimit="3.8637" x1="16.69" y1="37.766" x2="42.082" y2="12.744"/>
<line fill="none" stroke="#292929" stroke-width="0.375" stroke-linecap="round" stroke-linejoin="round" stroke-miterlimit="3.8637" x1="20.502" y1="31.929" x2="40.293" y2="12.426"/>
<line fill="none" stroke="#292929" stroke-width="0.375" stroke-linecap="round" stroke-linejoin="round" stroke-miterlimit="3.8637" x1="21.772" y1="28.597" x2="38.276" y2="12.333"/>
<line fill="none" stroke="#292929" stroke-width="0.375" stroke-linecap="round" stroke-linejoin="round" stroke-miterlimit="3.8637" x1="23.028" y1="25.278" x2="35.914" y2="12.58"/>
<line fill="none" stroke="#292929" stroke-width="0.375" stroke-linecap="round" stroke-linejoin="round" stroke-miterlimit="3.8637" x1="24.449" y1="21.797" x2="33.166" y2="13.207"/>
<path fill="none" stroke="#292929" stroke-width="0.375" stroke-linecap="round" stroke-linejoin="round" stroke-miterlimit="3.8637" d="
	M35.914,12.501"/>
<path fill="none" stroke="#292929" stroke-width="0.375" stroke-linecap="round" stroke-linejoin="round" stroke-miterlimit="3.8637" d="
	M53.678,22.035"/>
</svg>
