<?xml version="1.0" encoding="utf-8"?>
<!-- Generator: Adobe Illustrator 17.0.0, SVG Export Plug-In . SVG Version: 6.00 Build 0)  -->
<!DOCTYPE svg PUBLIC "-//W3C//DTD SVG 1.1//EN" "http://www.w3.org/Graphics/SVG/1.1/DTD/svg11.dtd">
<svg version="1.1" id="Layer_1" xmlns="http://www.w3.org/2000/svg" xmlns:xlink="http://www.w3.org/1999/xlink" x="0px" y="0px"
	 width="685.639px" height="534.799px" viewBox="0 0 685.639 534.799" enable-background="new 0 0 685.639 534.799"
	 xml:space="preserve">
<path d="M209.12,390.814v54.851c0,3.79,3.254,6.856,7.258,6.856h232.314c4.011,0,7.258-3.066,7.258-6.856v-54.851
	c0-3.79-3.247-6.856-7.258-6.856H216.378C212.374,383.958,209.12,387.024,209.12,390.814z M209.12,226.261v54.851
	c0,3.79,3.254,6.856,7.258,6.856h232.314c4.011,0,7.258-3.066,7.258-6.856v-54.851c0-3.79-3.247-6.856-7.258-6.856H216.378
	C212.374,219.405,209.12,222.471,209.12,226.261z M209.12,308.538v54.851c0,3.79,3.254,6.856,7.258,6.856h232.314
	c4.011,0,7.258-3.066,7.258-6.856v-54.851c0-3.79-3.247-6.856-7.258-6.856H216.378C212.374,301.681,209.12,304.747,209.12,308.538z
	 M65.872,172.132C65.872,77.067,142.939,0,238.005,0c75.808,0,140.175,48.999,163.141,117.067
	c17.094-8.45,36.344-13.19,56.706-13.19c70.799,0,128.195,57.395,128.195,128.195c0,13.03-1.942,25.605-5.551,37.443
	c60.147,13.284,105.143,66.917,105.143,131.061c0,74.135-60.088,134.222-134.222,134.222H149.642
	C66.997,534.799,0,467.802,0,385.163c0-59.35,34.542-110.627,84.62-134.824C72.635,226.877,65.872,200.294,65.872,172.132z
	 M263.971,438.809h-13.713v-41.138h13.713V438.809z M387.386,418.24c0-11.356,9.214-20.569,20.569-20.569
	c11.362,0,20.569,9.214,20.569,20.569s-9.207,20.569-20.569,20.569C396.6,438.809,387.386,429.595,387.386,418.24z M346.248,438.809
	h-13.713v-41.138h13.713V438.809z M318.822,438.809h-13.713v-41.138h13.713V438.809z M291.397,438.809h-13.713v-41.138h13.713
	V438.809z M387.386,253.686c0-11.356,9.214-20.569,20.569-20.569c11.362,0,20.569,9.214,20.569,20.569s-9.207,20.569-20.569,20.569
	C396.6,274.256,387.386,265.042,387.386,253.686z M346.248,274.256h-13.713v-41.138h13.713V274.256z M318.822,274.256h-13.713
	v-41.138h13.713V274.256z M291.397,274.256h-13.713v-41.138h13.713V274.256z M263.971,274.256h-13.713v-41.138h13.713V274.256z
	 M387.386,335.963c0-11.356,9.214-20.569,20.569-20.569c11.362,0,20.569,9.214,20.569,20.569s-9.207,20.569-20.569,20.569
	C396.6,356.532,387.386,347.319,387.386,335.963z M346.248,356.532h-13.713v-41.138h13.713V356.532z M318.822,356.532h-13.713
	v-41.138h13.713V356.532z M291.397,356.532h-13.713v-41.138h13.713V356.532z M263.971,356.532h-13.713v-41.138h13.713V356.532z"/>
</svg>
