<?xml version="1.0" encoding="utf-8"?>
<!-- Generator: Adobe Illustrator 16.0.4, SVG Export Plug-In . SVG Version: 6.00 Build 0)  -->
<!DOCTYPE svg PUBLIC "-//W3C//DTD SVG 1.1//EN" "http://www.w3.org/Graphics/SVG/1.1/DTD/svg11.dtd">
<svg version="1.1" id="Layer_1" xmlns="http://www.w3.org/2000/svg" xmlns:xlink="http://www.w3.org/1999/xlink" x="0px" y="0px"
	 width="324px" height="144px" viewBox="0 0 324 144" enable-background="new 0 0 324 144" xml:space="preserve">
<g>
	<g>
		<path fill-rule="evenodd" clip-rule="evenodd" fill="#FFFFFF" d="M45.706,45.649c-1.184,2.496-0.713,4.545,1.053,4.576
			s4.159-1.965,5.342-4.459c1.185-2.497,0.713-4.546-1.053-4.578C49.282,41.159,46.89,43.155,45.706,45.649z M60.096,36.64
			c0.015,0.006,0.024,0.021,0.024,0.038c0,0.006-0.001,0.011-0.002,0.014c-1.056,2.991-2.807,6.394-4.542,8.976
			c-3.655,5.428-8.903,8.852-11.718,7.645c-2.813-1.206-2.137-6.586,1.522-12.017c0.823-1.219,1.726-2.336,2.661-3.322
			c0.007-0.009,0.012-0.019,0.012-0.029c0-0.022-0.019-0.041-0.041-0.041c0,0-0.005,0-0.006,0.001
			c-1.149,0.159-2.314,0.386-3.49,0.684c-0.008,0.001-0.016,0.007-0.021,0.014C32.145,53.747,26.889,73.418,27.611,90.968l0,0
			c0,0.023-0.018,0.041-0.041,0.041c-0.005,0-0.011,0-0.016-0.002c-7.28-2.934-12.601-9.968-13.155-18.873l-0.007-0.104
			c-0.919-15.845,11.712-32.075,28.216-36.253C49.003,34.158,55.045,34.585,60.096,36.64z"/>
		<path fill="#FFFFFF" d="M55.427,79.374c-1.199,0.833-2.451,1.603-3.744,2.297c-0.006,0.002-0.013,0.004-0.019,0.004
			c-0.022,0-0.041-0.018-0.042-0.039c-0.241-3.805-1.061-7.49-2.478-10.557c-3.778-8.186-10.382-8.816-14.745-1.405
			c-2.669,4.535-3.885,11.034-3.556,17.272c0,0.018,0.012,0.033,0.027,0.037c4.629,1.45,9.962,1.609,15.651,0.174
			c16.479-4.199,29.086-20.413,28.169-36.241c-0.807-13.904-11.774-22.89-25.601-22.056c-0.01,0-0.019,0.004-0.025,0.012
			c-1.345,1.36-2.604,2.733-3.784,4.12c-0.006,0.007-0.01,0.017-0.01,0.025c0,0.023,0.019,0.042,0.041,0.042
			c0.001,0,0.004,0,0.006-0.001c8.102-1.025,14.596,0.621,18.833,3.997c0.01,0.008,0.016,0.02,0.016,0.032
			c0,0.008-0.002,0.017-0.006,0.022c-14.601,20.584-12.793,32.311-8.72,42.214c0.002,0.005,0.003,0.01,0.003,0.016
			C55.444,79.354,55.438,79.366,55.427,79.374z"/>
	</g>
	<g>
		<path fill="#FFFFFF" d="M191.618,55.826c3.446,0,5.992,0.75,7.222,1.444c0.015,0.009,0.023,0.026,0.02,0.044l-1.189,6.241
			c-0.002,0.013-0.012,0.023-0.023,0.029s-0.025,0.006-0.037-0.001c-1.395-0.76-3.805-1.569-6.393-1.569
			c-2.173,0-3.588,0.909-3.588,2.434c0,1.093,1.083,2.072,3.375,3.189c2.986,1.491,6.359,3.701,6.359,7.696
			c0,2.607-0.87,4.788-2.583,6.487c-2.278,2.261-5.975,3.495-10.419,3.461c-3.419-0.057-6.876-0.943-8.606-2.196
			c-0.014-0.009-0.02-0.025-0.017-0.042l1.192-6.279c0.003-0.013,0.012-0.024,0.025-0.03c0.013-0.005,0.026-0.003,0.038,0.004
			c1.852,1.161,5.497,2.413,8.174,2.413c2.074,0,3.472-0.958,3.472-2.493c0-1.391-0.982-2.363-3.491-3.591
			c-3.969-1.984-5.954-4.5-5.954-7.466C179.194,59.769,184.163,55.826,191.618,55.826z"/>
		<path fill="#FFFFFF" d="M100.178,55.769c0.496,0,1.105,0.053,1.552,0.134c0.011,0.002,0.02,0.008,0.026,0.018
			c0.006,0.011,0.009,0.021,0.006,0.031l-1.612,8.121c-0.002,0.011-0.008,0.021-0.018,0.026c-0.009,0.007-0.021,0.008-0.031,0.007
			c-0.293-0.062-0.759-0.133-1.306-0.133c-5.689,0-7.909,5.562-8.771,10.16l-2.021,10.813c-0.005,0.02-0.021,0.033-0.041,0.033
			h-8.295c-0.013,0-0.024-0.006-0.031-0.015c-0.008-0.01-0.012-0.022-0.01-0.035l5.419-28.492c0.004-0.02,0.021-0.034,0.041-0.034
			l7.295-0.001c0.014,0,0.025,0.005,0.033,0.016c0.006,0.007,0.01,0.017,0.01,0.025l-0.931,4.897c-0.007,0.033,0,0.076,0.042,0.098
			c0.043,0.021,0.089,0.008,0.118-0.037C93.832,57.784,96.845,55.769,100.178,55.769z"/>
		<path fill="#FFFFFF" d="M111.188,63.87c-2.251,2.252-3.94,6.481-3.938,9.848c0.001,2.956,1.097,4.797,3.002,4.797
			c3.05,0,5.676-3.188,6.579-7.857c0.203-1.043,0.408-2.104,0.556-3.048c0.148-0.943,0.24-1.775,0.213-2.356
			c-0.097-1.994-1.135-3.069-2.996-3.069C113.465,62.184,112.284,62.772,111.188,63.87z M114.298,84.691
			c-0.009-0.011-0.011-0.022-0.009-0.034l0.697-3.531c0.01-0.056-0.02-0.098-0.068-0.107c-0.039-0.007-0.074,0.015-0.092,0.046
			c-1.541,2.611-4.558,4.276-7.951,4.276c-5.568,0-8.085-4.943-8.088-9.891c-0.004-5.62,2.204-11.186,5.902-14.887
			c3.098-3.1,7.096-4.737,11.565-4.737c3.4,0.014,5.915,0.998,7.491,2.908c2.334,2.827,2.143,7.071,1.561,10.157l-3.016,15.781
			c-0.004,0.02-0.02,0.034-0.041,0.034h-7.92C114.317,84.707,114.306,84.701,114.298,84.691z"/>
		<path fill="#FFFFFF" d="M211.217,78.979c4.401,0,7.634-6.248,7.634-11.764c0-1.332-0.314-4.567-3.384-4.567
			c-3.121,0-5.756,3.557-6.777,8.95C208.34,73.442,207.361,78.979,211.217,78.979z M218.424,55.826
			c5.546,0,9.142,4.203,9.142,10.755c0,6.871-3.299,13.916-9.245,17.086c-5.417,2.888-10.257,1.621-11.777-0.641
			c-0.002-0.005-0.009-0.005-0.009,0.001l-2.024,10.7c-0.003,0.02-0.021,0.035-0.041,0.035h-8.297c-0.012,0-0.023-0.006-0.031-0.016
			s-0.011-0.022-0.008-0.034l7.121-37.454c0.004-0.02,0.021-0.034,0.041-0.034l7.296,0.005c0.012,0,0.023,0.006,0.032,0.015
			c0.008,0.011,0.01,0.023,0.008,0.034l-0.725,3.813c-0.008,0.042-0.004,0.093,0.038,0.11c0.04,0.016,0.084,0.002,0.116-0.04
			l0.035-0.046C212.231,57.374,215.25,55.826,218.424,55.826z"/>
		<path fill="#FFFFFF" d="M156.256,46.492h8.238c0.012,0,0.023,0.006,0.031,0.015c0.009,0.012,0.011,0.023,0.009,0.035
			l-4.298,22.605c-0.002,0.015,0.001,0.028,0.016,0.034c0.013,0.007,0.028,0.003,0.037-0.008l11.061-12.756
			c0.008-0.01,0.02-0.015,0.031-0.015h9.035c0.017,0,0.032,0.01,0.039,0.025c0.002,0.006,0.004,0.012,0.004,0.018
			c0,0.009-0.004,0.02-0.011,0.026l-11.477,12.929l7.001,15.191c0.003,0.006,0.003,0.011,0.003,0.017
			c0,0.009-0.002,0.017-0.005,0.022c-0.009,0.013-0.021,0.02-0.035,0.02h-8.92c-0.016,0-0.031-0.009-0.038-0.024l-6.772-15.018
			c-0.005-0.013-0.017-0.02-0.03-0.019c-0.015,0.001-0.023,0.011-0.027,0.024l-2.852,15.003c-0.004,0.02-0.021,0.033-0.041,0.033
			h-8.238c-0.013,0-0.024-0.006-0.032-0.015c-0.009-0.011-0.011-0.023-0.009-0.034l7.239-38.076
			C156.218,46.506,156.235,46.492,156.256,46.492z"/>
		<path fill="#FFFFFF" d="M297.111,64.335c0-1.458-1.208-2.378-3.012-2.378c-3.578,0-5.873,2.895-6.542,5.626l-0.023,0.1
			c-0.002,0.002-0.002,0.004,0,0.006s0.003,0.003,0.006,0.003h0.102c4.85,0.031,7.584-0.467,8.782-1.653
			C296.887,65.578,297.111,65.02,297.111,64.335z M295.137,55.827c5.898,0,9.833,3.427,9.833,8.508c0,2.35-0.765,4.282-2.271,5.75
			c-2.763,2.692-7.95,3.925-15.888,3.738l-0.089-0.001c-0.001-0.001-0.002,0-0.002,0c-0.001,0.001-0.001,0.001-0.001,0.003
			l0.003,0.089c0.027,0.817,0.31,1.971,0.843,2.718c1.085,1.371,3.004,2.117,5.383,2.117c3.477,0,6.489-0.844,9.766-2.732
			c0.015-0.009,0.032-0.008,0.045,0.002c0.014,0.01,0.02,0.025,0.018,0.041l-1.321,6.943c-0.002,0.013-0.01,0.023-0.021,0.029
			c-3.99,2.031-8.672,2.251-10.502,2.251c-7.797,0-12.254-4.335-12.254-11.906c0-4.364,1.604-8.738,4.396-12
			C286.14,57.797,290.424,55.827,295.137,55.827z"/>
		<path fill="#FFFFFF" d="M305.006,81.76c-0.155,1.728,1.104,3.108,2.828,3.108c1.758,0,3.327-1.438,3.484-3.197
			c0.155-1.73-1.105-3.111-2.828-3.111C306.733,78.56,305.166,79.996,305.006,81.76z M304.511,81.715
			c0.183-2.018,1.963-3.653,3.979-3.653s3.505,1.636,3.325,3.653c-0.184,2.016-1.965,3.65-3.981,3.65S304.329,83.73,304.511,81.715z
			 M307.363,79.56c0.002-0.008,0.009-0.015,0.018-0.015h0.915l0.01,0.001c0.234,0.004,0.389,0.005,0.508,0.014
			c0.16,0.012,0.28,0.037,0.404,0.08c0.465,0.154,0.729,0.522,0.729,0.991c0,0.081-0.009,0.165-0.026,0.251
			c-0.106,0.576-0.47,1.045-1.14,1.229l0.587,1.731c0,0.002,0.001,0.003,0.001,0.006s-0.001,0.006-0.003,0.009
			c-0.004,0.006-0.009,0.008-0.015,0.008h-0.595c-0.008,0-0.015-0.005-0.017-0.012l-0.561-1.648l-0.366,0.009H307.8h-0.404
			l-0.308,1.638c-0.001,0.008-0.01,0.014-0.018,0.014h-0.493c-0.005,0-0.011-0.002-0.015-0.007
			c-0.002-0.004-0.005-0.008-0.005-0.014l0.312-1.652l0.003-0.021l0.245-1.296L307.363,79.56z M308.198,80.074h-0.401l-0.15,0.808
			l-0.151,0.802h0.395h0.045c0.203-0.004,0.337-0.006,0.444-0.013c0.118-0.009,0.206-0.025,0.303-0.055
			c0.38-0.109,0.646-0.387,0.712-0.74c0.067-0.351-0.094-0.626-0.431-0.733c-0.086-0.032-0.163-0.046-0.28-0.056
			c-0.105-0.007-0.238-0.008-0.439-0.013H308.198z"/>
		<path fill="#FFFFFF" d="M240.526,63.87c-2.251,2.252-3.94,6.481-3.938,9.848c0.001,2.956,1.097,4.797,3.003,4.797
			c3.049,0,5.675-3.188,6.578-7.857c0.203-1.043,0.408-2.104,0.556-3.048c0.149-0.943,0.24-1.775,0.214-2.356
			c-0.098-1.994-1.136-3.069-2.997-3.069C242.803,62.184,241.622,62.772,240.526,63.87z M243.636,84.691
			c-0.008-0.011-0.011-0.022-0.008-0.034l0.697-3.531c0.009-0.056-0.021-0.098-0.069-0.107c-0.039-0.007-0.074,0.015-0.092,0.046
			c-1.541,2.611-4.558,4.276-7.951,4.276c-5.568,0-8.085-4.943-8.088-9.891c-0.004-5.62,2.204-11.186,5.902-14.887
			c3.098-3.1,7.096-4.737,11.565-4.737c3.4,0.014,5.916,0.998,7.492,2.908c2.333,2.827,2.142,7.071,1.56,10.157l-3.016,15.781
			c-0.003,0.02-0.02,0.034-0.041,0.034h-7.919C243.655,84.707,243.644,84.701,243.636,84.691z"/>
		<path fill="#FFFFFF" d="M274.438,55.885c2.116,0,4.275,0.368,5.775,0.981c0.019,0.008,0.029,0.027,0.025,0.047l-1.281,6.723
			c-0.003,0.013-0.011,0.024-0.022,0.029c-0.014,0.005-0.027,0.006-0.039-0.002c-1.293-0.723-2.79-1.072-4.574-1.072
			c-5.965,0-9.519,5.2-9.519,10.211c0,4.252,2.84,5.775,5.487,5.775c2.367,0,4.379-0.518,6.935-1.775
			c0.015-0.008,0.031-0.006,0.044,0.003c0.014,0.01,0.019,0.026,0.016,0.041l-1.308,6.906c-0.003,0.012-0.012,0.023-0.023,0.029
			c-1.938,0.938-4.938,1.501-8.024,1.501c-7.239,0-11.906-4.535-11.906-11.56C256.023,63.554,263.937,55.885,274.438,55.885z"/>
		<path fill="#FFFFFF" d="M145.101,55.885c2.116,0,4.275,0.368,5.775,0.981c0.019,0.008,0.029,0.027,0.025,0.047l-1.281,6.723
			c-0.003,0.013-0.011,0.024-0.023,0.029s-0.026,0.006-0.038-0.002c-1.293-0.723-2.79-1.072-4.574-1.072
			c-5.965,0-9.52,5.2-9.52,10.211c0,4.252,2.841,5.775,5.488,5.775c2.367,0,4.378-0.518,6.935-1.775
			c0.015-0.008,0.031-0.006,0.044,0.003c0.013,0.01,0.019,0.026,0.016,0.041l-1.308,6.906c-0.003,0.012-0.012,0.023-0.023,0.029
			c-1.938,0.938-4.938,1.501-8.024,1.501c-7.24,0-11.906-4.535-11.906-11.56C126.686,63.554,134.599,55.885,145.101,55.885z"/>
	</g>
</g>
<g>
</g>
<g>
</g>
<g>
</g>
<g>
</g>
<g>
</g>
<g>
</g>
<g>
</g>
<g>
</g>
<g>
</g>
<g>
</g>
<g>
</g>
<g>
</g>
<g>
</g>
<g>
</g>
<g>
</g>
</svg>
