<?xml version="1.0" encoding="utf-8"?>
<!-- Generator: Adobe Illustrator 17.0.0, SVG Export Plug-In . SVG Version: 6.00 Build 0)  -->
<!DOCTYPE svg PUBLIC "-//W3C//DTD SVG 1.1//EN" "http://www.w3.org/Graphics/SVG/1.1/DTD/svg11.dtd">
<svg version="1.1" id="Layer_1" xmlns="http://www.w3.org/2000/svg" xmlns:xlink="http://www.w3.org/1999/xlink" x="0px" y="0px"
	 width="611.377px" height="534.955px" viewBox="0 0 611.377 534.955" enable-background="new 0 0 611.377 534.955"
	 xml:space="preserve">
<path fill="#010101" d="M355.609,24.774c0.579,0.453,1.127,0.938,1.649,1.46L493.73,162.707l44.025,0.003
	c4.831,0.003,9.471,1.923,12.889,5.341l51.57,51.57c7.12,7.12,7.12,18.665,0,25.785L499.075,348.545
	c-7.12,7.12-18.665,7.12-25.785,0l-51.57-51.57c-3.418-3.418-5.341-8.061-5.341-12.896l0.009-44.006
	c0,0-120.797-120.797-123.032-123.032c-25.177-25.177-54.236-47.758-108.994-22.662c-7.022,3.22-15.178,1.63-20.484-3.676
	c-0.755-0.756-1.451-1.584-2.084-2.487c-5.039-7.249-4.164-17.063,2.077-23.305C256.725-27.941,323.856-0.091,355.609,24.774z
	 M190.365,270.482C178.448,280.032,59.307,375.756,9.163,425.9c-7.12,7.12-7.12,18.665,0,25.785l77.355,77.354
	c7.12,7.12,18.665,7.12,25.785,0c50.144-50.144,145.867-169.285,155.417-181.202l102.431-102.431l-77.354-77.355L190.365,270.482z"
	/>
</svg>
