<?xml version="1.0" encoding="utf-8"?>
<!-- Generator: Adobe Illustrator 17.0.0, SVG Export Plug-In . SVG Version: 6.00 Build 0)  -->
<!DOCTYPE svg PUBLIC "-//W3C//DTD SVG 1.1//EN" "http://www.w3.org/Graphics/SVG/1.1/DTD/svg11.dtd">
<svg version="1.1" id="Layer_1" xmlns="http://www.w3.org/2000/svg" xmlns:xlink="http://www.w3.org/1999/xlink" x="0px" y="0px"
	 width="707.237px" height="547.004px" viewBox="0 0 707.237 547.004" enable-background="new 0 0 707.237 547.004"
	 xml:space="preserve">
<path opacity="0.1" fill="#010101" d="M561.228,438.904L496.59,193.289l59.68-59.68c14.018-14.018,20.52-47.588,22.18-57.544
	c5.228-31.354,2.301-52.823-8.695-63.818c-10.996-10.996-32.464-13.923-63.818-8.695c-9.959,1.656-43.526,8.162-57.544,22.18
	l-59.68,59.68L143.098,20.774c-6.558-1.725-13.544,0.165-18.337,4.958L97.791,52.701c-4.155,4.155-6.163,9.982-5.442,15.812
	c0.527,4.267,2.466,8.181,5.442,11.157c1.093,1.093,2.321,2.057,3.674,2.871l183.347,110.011L183.98,315.784L72.926,303.442
	c-5.758-0.635-11.493,1.373-15.589,5.468l-13.485,13.485c-4.234,4.234-6.232,10.203-5.399,16.131
	c0.58,4.148,2.502,7.941,5.399,10.838c1.238,1.238,2.657,2.314,4.221,3.18l116.602,64.783l64.78,116.599
	c0.869,1.567,1.945,2.986,3.183,4.224c2.897,2.897,6.69,4.819,10.838,5.399c5.929,0.833,11.898-1.165,16.131-5.399l13.485-13.485
	c4.096-4.096,6.104-9.83,5.468-15.589l-12.342-111.054L389.45,297.19l110.011,183.347c0.81,1.35,1.778,2.581,2.871,3.674
	c2.976,2.976,6.891,4.915,11.157,5.442c5.827,0.718,11.657-1.287,15.812-5.442l26.969-26.969
	C561.064,452.448,562.953,445.462,561.228,438.904z"/>
</svg>
