<?xml version="1.0" encoding="utf-8"?>
<!-- Generator: Adobe Illustrator 17.0.0, SVG Export Plug-In . SVG Version: 6.00 Build 0)  -->
<!DOCTYPE svg PUBLIC "-//W3C//DTD SVG 1.1//EN" "http://www.w3.org/Graphics/SVG/1.1/DTD/svg11.dtd">
<svg version="1.1" id="Layer_1" xmlns="http://www.w3.org/2000/svg" xmlns:xlink="http://www.w3.org/1999/xlink" x="0px" y="0px"
	 width="707.237px" height="547.004px" viewBox="0 0 707.237 547.004" enable-background="new 0 0 707.237 547.004"
	 xml:space="preserve">
<path opacity="0.1" fill="#010101" d="M198.171,479.956c62.337-34.717,134.269-81.72,208.132-137.377
	C582.152,210.069,707.237,74.591,707.237,22.101c0-5.126-1.403-9.464-4.004-12.907C698.761,3.259,690.721,0,679.611,0
	c-31.77,0-88.82,20.86-159.198,59.073C474.851,22.155,416.83,0,353.613,0C207.139,0,88.399,118.74,88.399,265.214
	c0,36.27,7.387,70.771,20.575,102.25C41.483,435.073,0,491.923,0,522.14c0,5.6,1.219,10.29,3.993,13.975
	c4.489,5.957,12.577,10.889,23.763,10.889c33.022,0,94.901-24.994,170.345-67.005l0,0
	C198.123,479.988,198.144,479.972,198.171,479.956z M620.138,36.972c6.583,8.725-13.058,36.028-50.753,74.041
	c-11.32-15.81-24.325-30.324-38.758-43.275C579.967,40.274,613.362,27.972,620.138,36.972z M60.746,458.502
	c-6.788-9,14.267-37.727,54.298-77.613c8.542,17.563,18.934,34.037,30.972,49.166C99.024,455.858,67.328,467.238,60.746,458.502z
	 M618.045,245.864c0.464,6.399,0.782,12.836,0.782,19.35c0,146.474-118.74,265.214-265.214,265.214
	c-32.65,0-63.902-5.93-92.791-16.722c57.897-33.47,123.013-76.69,189.684-126.925C514.122,338.845,571.134,290.525,618.045,245.864z
	"/>
</svg>
