<?xml version="1.0" encoding="utf-8"?>
<!-- Generator: Adobe Illustrator 17.0.0, SVG Export Plug-In . SVG Version: 6.00 Build 0)  -->
<!DOCTYPE svg PUBLIC "-//W3C//DTD SVG 1.1//EN" "http://www.w3.org/Graphics/SVG/1.1/DTD/svg11.dtd">
<svg version="1.1" id="Layer_1" xmlns="http://www.w3.org/2000/svg" xmlns:xlink="http://www.w3.org/1999/xlink" x="0px" y="0px"
	 width="71.333px" height="71.333px" viewBox="0 0 71.333 71.333" enable-background="new 0 0 71.333 71.333" xml:space="preserve">
<path fill="none" stroke="#292929" stroke-width="0.7615" stroke-linecap="round" stroke-linejoin="round" stroke-miterlimit="3.8637" d="
	M35.136,64.587c1.109-1.294,2.053-3.112,2.226-5.581l0.109-1.55H15.545c-2.403,0-4.349-1.948-4.349-4.349V15.41
	c0-2.403,1.947-4.349,4.349-4.349h43.494c2.403,0,4.349,1.947,4.349,4.349v37.695c0,2.401-1.947,4.349-4.349,4.349H44.003
	l-0.345,0.96C42.743,60.965,40.605,63.962,35.136,64.587z"/>
<g>
	
		<line fill-rule="evenodd" clip-rule="evenodd" fill="none" stroke="#292929" stroke-width="0.375" stroke-linecap="round" stroke-linejoin="round" stroke-miterlimit="3.8637" x1="30.553" y1="29.014" x2="32.547" y2="27.014"/>
	
		<line fill-rule="evenodd" clip-rule="evenodd" fill="none" stroke="#292929" stroke-width="0.375" stroke-linecap="round" stroke-linejoin="round" stroke-miterlimit="3.8637" x1="28.987" y1="32.658" x2="34.67" y2="27.005"/>
	
		<line fill-rule="evenodd" clip-rule="evenodd" fill="none" stroke="#292929" stroke-width="0.375" stroke-linecap="round" stroke-linejoin="round" stroke-miterlimit="3.8637" x1="28.459" y1="35.258" x2="33.557" y2="30.203"/>
	
		<line fill-rule="evenodd" clip-rule="evenodd" fill="none" stroke="#292929" stroke-width="0.375" stroke-linecap="round" stroke-linejoin="round" stroke-miterlimit="3.8637" x1="28.459" y1="37.357" x2="32.56" y2="33.287"/>
	
		<line fill-rule="evenodd" clip-rule="evenodd" fill="none" stroke="#292929" stroke-width="0.375" stroke-linecap="round" stroke-linejoin="round" stroke-miterlimit="3.8637" x1="28.459" y1="39.457" x2="33.767" y2="34.194"/>
	
		<line fill-rule="evenodd" clip-rule="evenodd" fill="none" stroke="#292929" stroke-width="0.375" stroke-linecap="round" stroke-linejoin="round" stroke-miterlimit="3.8637" x1="33.329" y1="40.953" x2="35.126" y2="39.151"/>
	
		<line fill-rule="evenodd" clip-rule="evenodd" fill="none" stroke="#292929" stroke-width="0.375" stroke-linecap="round" stroke-linejoin="round" stroke-miterlimit="3.8637" x1="31.174" y1="40.989" x2="35.126" y2="37.051"/>
	
		<line fill-rule="evenodd" clip-rule="evenodd" fill="none" stroke="#292929" stroke-width="0.375" stroke-linecap="round" stroke-linejoin="round" stroke-miterlimit="3.8637" x1="29.094" y1="40.948" x2="35.141" y2="34.938"/>
	
		<polygon fill-rule="evenodd" clip-rule="evenodd" fill="none" stroke="#292929" stroke-width="0.75" stroke-linecap="round" stroke-linejoin="round" stroke-miterlimit="3.8637" points="
		34.748,26.995 31.368,26.995 28.327,34.139 28.327,40.996 35.182,40.996 35.182,34.139 32.286,34.139 	"/>
</g>
<g>
	
		<line fill-rule="evenodd" clip-rule="evenodd" fill="none" stroke="#292929" stroke-width="0.375" stroke-linecap="round" stroke-linejoin="round" stroke-miterlimit="3.8637" x1="20.775" y1="29.014" x2="22.768" y2="27.014"/>
	
		<line fill-rule="evenodd" clip-rule="evenodd" fill="none" stroke="#292929" stroke-width="0.375" stroke-linecap="round" stroke-linejoin="round" stroke-miterlimit="3.8637" x1="19.208" y1="32.658" x2="24.891" y2="27.005"/>
	
		<line fill-rule="evenodd" clip-rule="evenodd" fill="none" stroke="#292929" stroke-width="0.375" stroke-linecap="round" stroke-linejoin="round" stroke-miterlimit="3.8637" x1="18.679" y1="35.258" x2="23.778" y2="30.203"/>
	
		<line fill-rule="evenodd" clip-rule="evenodd" fill="none" stroke="#292929" stroke-width="0.375" stroke-linecap="round" stroke-linejoin="round" stroke-miterlimit="3.8637" x1="18.679" y1="37.357" x2="22.781" y2="33.287"/>
	
		<line fill-rule="evenodd" clip-rule="evenodd" fill="none" stroke="#292929" stroke-width="0.375" stroke-linecap="round" stroke-linejoin="round" stroke-miterlimit="3.8637" x1="18.679" y1="39.457" x2="23.989" y2="34.194"/>
	
		<line fill-rule="evenodd" clip-rule="evenodd" fill="none" stroke="#292929" stroke-width="0.375" stroke-linecap="round" stroke-linejoin="round" stroke-miterlimit="3.8637" x1="23.55" y1="40.953" x2="25.348" y2="39.151"/>
	
		<line fill-rule="evenodd" clip-rule="evenodd" fill="none" stroke="#292929" stroke-width="0.375" stroke-linecap="round" stroke-linejoin="round" stroke-miterlimit="3.8637" x1="21.395" y1="40.989" x2="25.348" y2="37.051"/>
	
		<line fill-rule="evenodd" clip-rule="evenodd" fill="none" stroke="#292929" stroke-width="0.375" stroke-linecap="round" stroke-linejoin="round" stroke-miterlimit="3.8637" x1="19.317" y1="40.948" x2="25.362" y2="34.938"/>
	
		<polygon fill-rule="evenodd" clip-rule="evenodd" fill="none" stroke="#292929" stroke-width="0.75" stroke-linecap="round" stroke-linejoin="round" stroke-miterlimit="3.8637" points="
		24.969,26.995 21.589,26.995 18.548,34.139 18.548,40.996 25.405,40.996 25.405,34.139 22.506,34.139 	"/>
</g>
<g>
	
		<line fill-rule="evenodd" clip-rule="evenodd" fill="none" stroke="#292929" stroke-width="0.375" stroke-linecap="round" stroke-linejoin="round" stroke-miterlimit="3.8637" x1="44.942" y1="40.016" x2="42.947" y2="42.015"/>
	
		<line fill-rule="evenodd" clip-rule="evenodd" fill="none" stroke="#292929" stroke-width="0.375" stroke-linecap="round" stroke-linejoin="round" stroke-miterlimit="3.8637" x1="46.509" y1="36.372" x2="40.826" y2="42.025"/>
	
		<line fill-rule="evenodd" clip-rule="evenodd" fill="none" stroke="#292929" stroke-width="0.375" stroke-linecap="round" stroke-linejoin="round" stroke-miterlimit="3.8637" x1="47.036" y1="33.772" x2="41.939" y2="38.827"/>
	
		<line fill-rule="evenodd" clip-rule="evenodd" fill="none" stroke="#292929" stroke-width="0.375" stroke-linecap="round" stroke-linejoin="round" stroke-miterlimit="3.8637" x1="47.036" y1="31.673" x2="42.934" y2="35.744"/>
	
		<line fill-rule="evenodd" clip-rule="evenodd" fill="none" stroke="#292929" stroke-width="0.375" stroke-linecap="round" stroke-linejoin="round" stroke-miterlimit="3.8637" x1="47.036" y1="29.574" x2="41.728" y2="34.837"/>
	
		<line fill-rule="evenodd" clip-rule="evenodd" fill="none" stroke="#292929" stroke-width="0.375" stroke-linecap="round" stroke-linejoin="round" stroke-miterlimit="3.8637" x1="42.165" y1="28.078" x2="40.369" y2="29.88"/>
	
		<line fill-rule="evenodd" clip-rule="evenodd" fill="none" stroke="#292929" stroke-width="0.375" stroke-linecap="round" stroke-linejoin="round" stroke-miterlimit="3.8637" x1="44.32" y1="28.042" x2="40.369" y2="31.98"/>
	
		<line fill-rule="evenodd" clip-rule="evenodd" fill="none" stroke="#292929" stroke-width="0.375" stroke-linecap="round" stroke-linejoin="round" stroke-miterlimit="3.8637" x1="46.4" y1="28.082" x2="40.353" y2="34.094"/>
	
		<polygon fill-rule="evenodd" clip-rule="evenodd" fill="none" stroke="#292929" stroke-width="0.75" stroke-linecap="round" stroke-linejoin="round" stroke-miterlimit="3.8637" points="
		40.747,42.037 44.126,42.037 47.169,34.891 47.169,28.035 40.312,28.035 40.312,34.891 43.21,34.891 	"/>
</g>
<g>
	
		<line fill-rule="evenodd" clip-rule="evenodd" fill="none" stroke="#292929" stroke-width="0.375" stroke-linecap="round" stroke-linejoin="round" stroke-miterlimit="3.8637" x1="54.721" y1="40.016" x2="52.726" y2="42.015"/>
	
		<line fill-rule="evenodd" clip-rule="evenodd" fill="none" stroke="#292929" stroke-width="0.375" stroke-linecap="round" stroke-linejoin="round" stroke-miterlimit="3.8637" x1="56.287" y1="36.372" x2="50.604" y2="42.025"/>
	
		<line fill-rule="evenodd" clip-rule="evenodd" fill="none" stroke="#292929" stroke-width="0.375" stroke-linecap="round" stroke-linejoin="round" stroke-miterlimit="3.8637" x1="56.815" y1="33.772" x2="51.716" y2="38.827"/>
	
		<line fill-rule="evenodd" clip-rule="evenodd" fill="none" stroke="#292929" stroke-width="0.375" stroke-linecap="round" stroke-linejoin="round" stroke-miterlimit="3.8637" x1="56.815" y1="31.673" x2="52.713" y2="35.744"/>
	
		<line fill-rule="evenodd" clip-rule="evenodd" fill="none" stroke="#292929" stroke-width="0.375" stroke-linecap="round" stroke-linejoin="round" stroke-miterlimit="3.8637" x1="56.815" y1="29.574" x2="51.506" y2="34.837"/>
	
		<line fill-rule="evenodd" clip-rule="evenodd" fill="none" stroke="#292929" stroke-width="0.375" stroke-linecap="round" stroke-linejoin="round" stroke-miterlimit="3.8637" x1="51.944" y1="28.078" x2="50.148" y2="29.88"/>
	
		<line fill-rule="evenodd" clip-rule="evenodd" fill="none" stroke="#292929" stroke-width="0.375" stroke-linecap="round" stroke-linejoin="round" stroke-miterlimit="3.8637" x1="54.099" y1="28.042" x2="50.148" y2="31.98"/>
	
		<line fill-rule="evenodd" clip-rule="evenodd" fill="none" stroke="#292929" stroke-width="0.375" stroke-linecap="round" stroke-linejoin="round" stroke-miterlimit="3.8637" x1="56.179" y1="28.082" x2="50.132" y2="34.094"/>
	
		<polygon fill-rule="evenodd" clip-rule="evenodd" fill="none" stroke="#292929" stroke-width="0.75" stroke-linecap="round" stroke-linejoin="round" stroke-miterlimit="3.8637" points="
		50.526,42.037 53.905,42.037 56.947,34.891 56.947,28.035 50.091,28.035 50.091,34.891 52.988,34.891 	"/>
</g>
</svg>
