<?xml version="1.0" encoding="utf-8"?>
<!-- Generator: Adobe Illustrator 17.0.0, SVG Export Plug-In . SVG Version: 6.00 Build 0)  -->
<!DOCTYPE svg PUBLIC "-//W3C//DTD SVG 1.1//EN" "http://www.w3.org/Graphics/SVG/1.1/DTD/svg11.dtd">
<svg version="1.1" id="Layer_1" xmlns="http://www.w3.org/2000/svg" xmlns:xlink="http://www.w3.org/1999/xlink" x="0px" y="0px"
	 width="611.377px" height="534.955px" viewBox="0 0 611.377 534.955" enable-background="new 0 0 611.377 534.955"
	 xml:space="preserve">
<path fill="#010101" d="M373.027,66.92v33.513c0,37.019-30.007,67.027-67.027,67.027c-37.019,0-67.027-30.007-67.027-67.027V66.92
	c0-37.019,30.007-67.027,67.027-67.027C343.019-0.107,373.027,29.901,373.027,66.92z M401.631,239.396
	c-1.567-1.571-39.069-38.423-95.631-38.423s-94.064,36.852-95.631,38.423c-3.142,3.142-4.909,7.405-4.909,11.847v134.053
	c0,6.349,3.584,12.15,9.262,14.989l25.663,12.829l15.513,108.603c1.183,8.256,8.252,14.388,16.589,14.388h67.027
	c8.337,0,15.406-6.133,16.589-14.388l15.513-108.603l25.663-12.829c5.678-2.839,9.262-8.64,9.262-14.989V251.243
	C406.54,246.801,404.773,242.538,401.631,239.396z M557.35,117.19v25.135c0,27.765-22.505,50.27-50.27,50.27
	c-27.765,0-50.27-22.505-50.27-50.27V117.19c0-27.765,22.505-50.27,50.27-50.27C534.845,66.92,557.35,89.425,557.35,117.19z
	 M507.08,217.73c-62.191,0-67.027,25.65-67.027,33.513v100.54c0,5.605,2.798,10.833,7.462,13.942l18.544,12.363l7.589,75.904
	c0.859,8.567,8.067,15.088,16.675,15.088h33.513c8.607,0,15.816-6.521,16.675-15.088l7.589-75.904l18.545-12.363
	c4.663-3.109,7.462-8.337,7.462-13.942v-100.54C574.107,243.38,569.271,217.73,507.08,217.73z M155.19,117.19v25.135
	c0,27.765-22.505,50.27-50.27,50.27c-27.765,0-50.27-22.505-50.27-50.27V117.19c0-27.765,22.505-50.27,50.27-50.27
	C132.686,66.92,155.19,89.425,155.19,117.19z M104.92,217.73c-62.191,0-67.027,25.65-67.027,33.513v100.54
	c0,5.605,2.798,10.833,7.462,13.942L63.9,378.088l7.589,75.904c0.859,8.567,8.067,15.088,16.675,15.088h33.513
	c8.607,0,15.816-6.521,16.675-15.088l7.589-75.904l18.545-12.363c4.663-3.109,7.462-8.337,7.462-13.942v-100.54
	C171.947,243.38,167.111,217.73,104.92,217.73z"/>
</svg>
