<?xml version="1.0" encoding="utf-8"?>
<!-- Generator: Adobe Illustrator 17.0.0, SVG Export Plug-In . SVG Version: 6.00 Build 0)  -->
<!DOCTYPE svg PUBLIC "-//W3C//DTD SVG 1.1//EN" "http://www.w3.org/Graphics/SVG/1.1/DTD/svg11.dtd">
<svg version="1.1" id="Layer_1" xmlns="http://www.w3.org/2000/svg" xmlns:xlink="http://www.w3.org/1999/xlink" x="0px" y="0px"
	 width="611.377px" height="534.955px" viewBox="0 0 611.377 534.955" enable-background="new 0 0 611.377 534.955"
	 xml:space="preserve">
<path fill="#010101" d="M72.566,318.03V201.305c0-18.416,14.931-33.348,33.348-33.348h92.72c-4.474-1.726-8.65-3.314-12.265-4.681
	c-16.169-6.131-31.451-11.928-43.566-17.7c-11.04-5.268-36.889-17.59-36.889-44.315c0-6.509,0-26.318,36.865-63.178
	c36.856-36.865,56.669-36.865,63.178-36.865c17.35,0,33.144,8.785,80.858,60.834c6.745,7.36,13.283,14.679,19.185,21.392
	c5.903-6.713,12.44-14.032,19.182-21.392c47.717-52.049,63.512-60.834,80.862-60.834c6.509,0,26.318,0,63.179,36.865
	c36.865,36.861,36.865,56.669,36.865,63.178c0,26.724-25.85,39.047-36.889,44.315c-12.115,5.772-27.396,11.569-43.57,17.7
	c-3.602,1.368-7.791,2.955-12.261,4.681h92.72c18.416,0,33.348,14.931,33.348,33.348V318.03H339.348V167.957h-66.695V318.03H72.566z
	 M272.652,384.726H72.566v116.709c0,18.416,14.931,33.348,33.348,33.348h166.739V384.726z M339.348,384.726v150.057h166.739
	c18.416,0,33.348-14.931,33.348-33.348V384.726H339.348z"/>
</svg>
