<?xml version="1.0" encoding="utf-8"?>
<!-- Generator: Adobe Illustrator 17.0.0, SVG Export Plug-In . SVG Version: 6.00 Build 0)  -->
<!DOCTYPE svg PUBLIC "-//W3C//DTD SVG 1.1//EN" "http://www.w3.org/Graphics/SVG/1.1/DTD/svg11.dtd">
<svg version="1.1" id="Layer_1" xmlns="http://www.w3.org/2000/svg" xmlns:xlink="http://www.w3.org/1999/xlink" x="0px" y="0px"
	 width="687.376px" height="536.154px" viewBox="0 0 687.376 536.154" enable-background="new 0 0 687.376 536.154"
	 xml:space="preserve">
<path d="M314.421,348.065h21.964l15.654,15.291h42.659l22.373-20.381h14.883l10.693,10.445h17.869l11.673-11.412h13.889
	l16.647,14.781h17.627l19.85-29.845v-3.665H338.507v-10.954h201.695v-3.8l-26.683-17.238H314.421l-27.763-52.412h-100.71
	l-42.847,80.807l42.847,80.794h100.71L314.421,348.065z M66.033,172.569C66.033,77.262,143.303,0,238.623,0
	c75.987,0,140.502,49.123,163.546,117.364c17.131-8.471,36.436-13.224,56.843-13.224c70.966,0,128.534,57.54,128.534,128.52
	c0,13.063-1.966,25.669-5.584,37.538c60.306,13.317,105.415,67.087,105.415,131.393c0,74.323-60.253,134.562-134.548,134.562
	H150.016C67.168,536.154,0,468.987,0,386.139c0-59.501,34.638-110.907,84.848-135.166C72.819,227.451,66.033,200.802,66.033,172.569
	z M217.236,378.595h-17.681l-31.227-58.911l31.227-58.923h17.681V378.595z"/>
</svg>
