<?xml version="1.0" encoding="utf-8"?>
<!-- Generator: Adobe Illustrator 17.0.0, SVG Export Plug-In . SVG Version: 6.00 Build 0)  -->
<!DOCTYPE svg PUBLIC "-//W3C//DTD SVG 1.1//EN" "http://www.w3.org/Graphics/SVG/1.1/DTD/svg11.dtd">
<svg version="1.1" id="Layer_1" xmlns="http://www.w3.org/2000/svg" xmlns:xlink="http://www.w3.org/1999/xlink" x="0px" y="0px"
	 width="707.237px" height="547.004px" viewBox="0 0 707.237 547.004" enable-background="new 0 0 707.237 547.004"
	 xml:space="preserve">
<path opacity="0.1" fill="#010101" d="M108.306,213.192C89.399,190.636,78,161.578,78,129.844C78,58.134,136.134,0,207.844,0
	c36.899,0,70.178,15.415,93.816,40.128C210.513,59.161,136.966,125.985,108.306,213.192z M502.156,0
	c-36.899,0-70.178,15.415-93.818,40.128c91.146,19.037,164.693,85.857,193.356,173.064C620.601,190.636,632,161.578,632,129.844
	C632,58.134,573.866,0,502.156,0z M153.7,499.247c-4.362,6.11-6.458,13.151-6.45,20.128c0.009,10.791,5.047,21.421,14.5,28.173
	c6.101,4.358,13.13,6.452,20.096,6.452c10.803,0,21.448-5.042,28.205-14.502l14.692-20.567
	c-20.125-11.698-38.548-25.986-54.769-42.464L153.7,499.247z M540.027,476.468c-16.224,16.478-34.644,30.766-54.769,42.464
	l14.692,20.567c6.759,9.46,17.401,14.502,28.205,14.502c6.964,0,13.997-2.094,20.096-6.452c9.453-6.752,14.489-17.382,14.5-28.173
	c0.004-6.976-2.086-14.018-6.45-20.128L540.027,476.468z M580.062,294.312c0,124.299-100.764,225.062-225.062,225.062
	c-124.298,0-225.062-100.764-225.062-225.062C129.938,170.014,230.702,69.25,355,69.25
	C479.299,69.25,580.062,170.014,580.062,294.312z M389.625,173.125c0-19.126-15.501-34.625-34.625-34.625
	s-34.625,15.499-34.625,34.625v106.842l-59.108,59.111c-6.763,6.761-10.142,15.622-10.142,24.485
	c0,8.859,3.382,17.722,10.142,24.481c6.761,6.763,15.622,10.144,24.483,10.144c8.861,0,17.722-3.381,24.483-10.144l69.25-69.25
	c6.494-6.492,10.142-15.301,10.142-24.481V173.125z"/>
</svg>
