<?xml version="1.0" encoding="utf-8"?>
<!-- Generator: Adobe Illustrator 17.0.0, SVG Export Plug-In . SVG Version: 6.00 Build 0)  -->
<!DOCTYPE svg PUBLIC "-//W3C//DTD SVG 1.1//EN" "http://www.w3.org/Graphics/SVG/1.1/DTD/svg11.dtd">
<svg version="1.1" id="Layer_1" xmlns="http://www.w3.org/2000/svg" xmlns:xlink="http://www.w3.org/1999/xlink" x="0px" y="0px"
	 width="579.887px" height="636.798px" viewBox="0 0 579.887 636.798" enable-background="new 0 0 579.887 636.798"
	 xml:space="preserve">
<path opacity="0.1" fill="#010101" d="M74.55,255.735l45.806-112.206c7.227-17.703,27.44-26.197,45.143-18.97l89.13,36.386
	c-3.623-3.415-7.015-6.58-9.953-9.313c-13.137-12.238-25.552-23.808-34.933-34.111c-8.545-9.396-28.558-31.385-18.071-57.075
	c2.554-6.257,10.328-25.299,60.231-46.265C301.8-6.795,320.846,0.98,327.103,3.535c16.678,6.808,28.414,21.451,53.855,90.21
	c3.596,9.722,7.008,19.323,10.048,28.092c8.308-4.137,17.465-8.607,26.834-13.036c66.295-31.309,84.926-33.555,101.604-26.746
	c6.257,2.554,25.299,10.328,46.266,60.231c20.972,49.9,13.199,68.942,10.645,75.199c-10.487,25.69-40.172,27.391-52.851,28.123
	c-13.911,0.794-30.876,0.37-48.829-0.083c-4-0.099-8.649-0.217-13.623-0.312l89.13,36.386c17.703,7.227,26.197,27.44,18.97,45.143
	l-45.806,112.206l-192.34-78.52l58.893-144.263l-64.113-26.173L266.89,334.254L74.55,255.735z M240.717,398.368l-192.34-78.52
	l-45.8,112.19c-7.227,17.703,1.267,37.916,18.97,45.143l160.283,65.433L240.717,398.368z M304.83,424.541l-58.886,144.247
	l160.283,65.433c17.703,7.227,37.916-1.267,45.143-18.97l45.8-112.19L304.83,424.541z"/>
</svg>
